PathFileType	4	(X/Y/Z)	C:\Users\italobelli\Desktop\GitHub\PTbot_officialCBL\Personal_Results\SHRUG02_noisy1.trc
DataRate	CameraRate	NumFrames	NumMarkers	Units	OrigDataRate	OrigDataStartFrame	OrigNumFrames
112.250000	112.250000	21	9	m	112.250000	282	450
Frame#	Time		gu		centelbow		EpL		centpxt8		centijc7		ij		ts		aa		ai
			X1	Y1	Z1	X2	Y2	Z2	X3	Y3	Z3	X4	Y4	Z4	X5	Y5	Z5	X6	Y6	Z6	X7	Y7	Z7	X8	Y8	Z8	X9	Y9	Z9

282	2.5033	-0.07898	-0.012296	0.16396	-0.097419	-0.26263	0.21079	-0.073928	-0.25766	0.23232	-0.046816	-0.15316	-0.008669	-0.046816	0.031938	-0.008669	0	0	0	-0.13887	0.028904	0.055676	-0.10589	0.025782	0.17024	-0.16123	-0.082036	0.064473
283	2.5122	-0.079081	-0.012315	0.16399	-0.097569	-0.26281	0.2106	-0.074101	-0.25784	0.23217	-0.046816	-0.15316	-0.008669	-0.046816	0.031938	-0.008669	0	0	0	-0.13888	0.028909	0.055711	-0.10595	0.025741	0.17028	-0.16125	-0.08203	0.064357
284	2.5212	-0.07918	-0.012333	0.16401	-0.097719	-0.26299	0.21041	-0.074276	-0.25802	0.23203	-0.046816	-0.15316	-0.008669	-0.046816	0.031938	-0.008669	0	0	0	-0.13888	0.028916	0.055741	-0.106	0.025702	0.17031	-0.16127	-0.082023	0.064243
285	2.5301	-0.079279	-0.012351	0.16402	-0.097869	-0.26317	0.21023	-0.074454	-0.25819	0.23189	-0.046816	-0.15316	-0.008669	-0.046816	0.031938	-0.008669	0	0	0	-0.13889	0.028925	0.055765	-0.10605	0.025664	0.17033	-0.16129	-0.082014	0.064129
286	2.539	-0.079376	-0.012369	0.16403	-0.09802	-0.26335	0.21004	-0.074634	-0.25837	0.23175	-0.046816	-0.15316	-0.008669	-0.046816	0.031938	-0.008669	0	0	0	-0.13889	0.028936	0.055785	-0.1061	0.025626	0.17035	-0.16131	-0.082004	0.064017
287	2.5479	-0.079473	-0.012386	0.16404	-0.098171	-0.26352	0.20985	-0.074817	-0.25854	0.23162	-0.046816	-0.15316	-0.008669	-0.046816	0.031938	-0.008669	0	0	0	-0.13889	0.028948	0.055799	-0.10615	0.02559	0.17036	-0.16132	-0.081991	0.063907
288	2.5568	-0.079568	-0.012403	0.16404	-0.098322	-0.26369	0.20967	-0.075001	-0.25871	0.23148	-0.046816	-0.15316	-0.008669	-0.046816	0.031938	-0.008669	0	0	0	-0.1389	0.028962	0.055809	-0.1062	0.025555	0.17037	-0.16134	-0.081978	0.063798
289	2.5657	-0.079662	-0.012419	0.16404	-0.098474	-0.26386	0.20948	-0.075188	-0.25888	0.23135	-0.046816	-0.15316	-0.008669	-0.046816	0.031938	-0.008669	0	0	0	-0.1389	0.028978	0.055814	-0.10625	0.025521	0.17038	-0.16135	-0.081962	0.063691
290	2.5746	-0.079754	-0.012435	0.16403	-0.098626	-0.26403	0.2093	-0.075377	-0.25904	0.23122	-0.046816	-0.15316	-0.008669	-0.046816	0.031938	-0.008669	0	0	0	-0.1389	0.028995	0.055815	-0.10629	0.025488	0.17038	-0.16137	-0.081945	0.063586
291	2.5835	-0.079845	-0.012451	0.16401	-0.098778	-0.2642	0.20912	-0.075568	-0.25921	0.23109	-0.046816	-0.15316	-0.008669	-0.046816	0.031938	-0.008669	0	0	0	-0.13889	0.029014	0.055812	-0.10633	0.025455	0.17038	-0.16138	-0.081927	0.063482
292	2.5924	-0.079935	-0.012465	0.164	-0.09893	-0.26436	0.20894	-0.075761	-0.25937	0.23097	-0.046816	-0.15316	-0.008669	-0.046816	0.031938	-0.008669	0	0	0	-0.13889	0.029034	0.055805	-0.10637	0.025425	0.17038	-0.16139	-0.081908	0.06338
293	2.6013	-0.080023	-0.01248	0.16398	-0.099083	-0.26452	0.20876	-0.075955	-0.25952	0.23084	-0.046816	-0.15316	-0.008669	-0.046816	0.031938	-0.008669	0	0	0	-0.13889	0.029055	0.055795	-0.10641	0.025395	0.17037	-0.1614	-0.081887	0.063281
294	2.6102	-0.080109	-0.012494	0.16395	-0.099236	-0.26468	0.20858	-0.076151	-0.25968	0.23072	-0.046816	-0.15316	-0.008669	-0.046816	0.031938	-0.008669	0	0	0	-0.13889	0.029078	0.055781	-0.10645	0.025366	0.17036	-0.16141	-0.081865	0.063183
295	2.6192	-0.080194	-0.012508	0.16392	-0.099389	-0.26484	0.20841	-0.076349	-0.25983	0.2306	-0.046816	-0.15316	-0.008669	-0.046816	0.031938	-0.008669	0	0	0	-0.13888	0.029102	0.055763	-0.10649	0.025338	0.17035	-0.16142	-0.081842	0.063087
296	2.6281	-0.080277	-0.012521	0.16389	-0.099543	-0.26499	0.20824	-0.076548	-0.25998	0.23049	-0.046816	-0.15316	-0.008669	-0.046816	0.031938	-0.008669	0	0	0	-0.13888	0.029127	0.055743	-0.10652	0.025312	0.17033	-0.16143	-0.081817	0.062993
297	2.637	-0.080359	-0.012533	0.16386	-0.099697	-0.26514	0.20807	-0.076748	-0.26013	0.23037	-0.046816	-0.15316	-0.008669	-0.046816	0.031938	-0.008669	0	0	0	-0.13887	0.029153	0.05572	-0.10655	0.025286	0.17032	-0.16144	-0.081792	0.062902
298	2.6459	-0.080438	-0.012545	0.16382	-0.099851	-0.26528	0.2079	-0.07695	-0.26027	0.23026	-0.046816	-0.15316	-0.008669	-0.046816	0.031938	-0.008669	0	0	0	-0.13887	0.029181	0.055694	-0.10658	0.025262	0.1703	-0.16145	-0.081766	0.062813
299	2.6548	-0.080515	-0.012557	0.16378	-0.10001	-0.26543	0.20774	-0.077153	-0.26041	0.23016	-0.046816	-0.15316	-0.008669	-0.046816	0.031938	-0.008669	0	0	0	-0.13886	0.029209	0.055666	-0.10661	0.025239	0.17027	-0.16145	-0.081739	0.062726
300	2.6637	-0.080591	-0.012568	0.16374	-0.10016	-0.26557	0.20758	-0.077358	-0.26055	0.23005	-0.046816	-0.15316	-0.008669	-0.046816	0.031938	-0.008669	0	0	0	-0.13885	0.029238	0.055636	-0.10664	0.025217	0.17025	-0.16146	-0.081711	0.062642
301	2.6726	-0.080664	-0.012579	0.1637	-0.10031	-0.2657	0.20742	-0.077563	-0.26069	0.22995	-0.046816	-0.15316	-0.008669	-0.046816	0.031938	-0.008669	0	0	0	-0.13884	0.029267	0.055604	-0.10666	0.025196	0.17022	-0.16146	-0.081682	0.06256
302	2.6815	-0.080735	-0.012589	0.16365	-0.10047	-0.26584	0.20727	-0.077769	-0.26082	0.22985	-0.046816	-0.15316	-0.008669	-0.046816	0.031938	-0.008669	0	0	0	-0.13883	0.029298	0.05557	-0.10669	0.025177	0.1702	-0.16147	-0.081653	0.062481
